<svg width="56" height="56" viewBox="0 0 56 56" fill="none" xmlns="http://www.w3.org/2000/svg">
<g id="Group">
<g id="Layer_8">
<g id="Group_2">
<path id="Vector" d="M18.3013 29.2525C16.1656 29.2525 14.0865 28.529 12.4149 27.2083C13.1966 26.6877 14.0532 26.3267 14.9664 26.1338C15.991 26.6711 17.142 26.9555 18.3013 26.9555C18.8485 26.9555 19.4007 26.8906 19.9413 26.7642C21.054 26.5031 22.1036 25.9708 22.9768 25.224C23.7403 24.5703 24.3491 23.7836 24.7832 22.887L24.8663 22.7157L24.7 22.6242C22.4496 21.3851 21.0524 19.0847 21.0524 16.6247V12.9604H23.2712L23.366 16.6297C23.366 18.2281 24.0546 19.6519 25.2539 20.5285C26.019 21.0873 26.7858 21.3817 27.649 21.4433C27.5193 22.1652 27.3064 22.8704 27.012 23.544C26.4714 24.7865 25.6498 25.9226 24.6368 26.8307C23.9366 27.4578 23.1515 27.9767 22.3032 28.3709C21.0441 28.9564 19.6985 29.2542 18.3013 29.2542V29.2525Z" fill="#D2CAC3"/>
<path id="Vector_2" d="M16.5082 43.6484C10.8513 43.6484 6.24896 39.046 6.24896 33.3891C6.24896 30.1557 7.72764 27.1783 10.3041 25.219C11.0127 24.6801 11.7878 24.236 12.6094 23.8983C13.8469 23.3893 15.1593 23.1315 16.5065 23.1315C18.6905 23.1315 20.7629 23.8035 22.521 25.0793C21.7559 25.6864 20.8627 26.1255 19.918 26.3567C18.8485 25.8344 17.7008 25.5699 16.5065 25.5699C15.9859 25.5699 15.4653 25.6215 14.9563 25.7246C13.8752 25.9425 12.8689 26.3816 11.9641 27.0303C9.91322 28.5007 8.68736 30.8775 8.68736 33.3891C8.68736 37.7004 12.1953 41.2083 16.5065 41.2083H23.9249V43.6484H16.5065H16.5082Z" fill="#D2CAC3"/>
<path id="Vector_3" d="M26.7708 55.5859C25.8959 55.5476 25.0193 55.4694 24.1577 55.353C18.085 54.5247 12.5662 51.7786 8.20168 47.4124C2.91238 42.1231 -6.10352e-05 35.0907 -6.10352e-05 27.6108C-6.10352e-05 20.1309 2.91238 13.0985 8.20168 7.80919C11.7595 4.25138 16.1855 1.71984 21.0058 0.485667C21.6994 0.307693 22.5443 0.157997 23.371 0.0216064V9.88H21.0573V3.11867L20.8012 3.19352C16.7594 4.36282 13.135 6.53177 10.0296 9.63716C5.2277 14.4391 2.58305 20.8229 2.58305 27.6125C2.58305 34.4021 5.2277 40.7858 10.028 45.5878C13.8852 49.445 18.752 51.9166 24.1012 52.7366L24.3324 52.7716V33.4107C24.3324 31.6892 23.7569 30.006 22.7073 28.6437C23.4409 28.2794 24.1245 27.8254 24.7482 27.2914C26.0739 29.0695 26.7725 31.1819 26.7725 33.4107V55.5859H26.7708Z" fill="#D2CAC3"/>
<path id="Vector_4" d="M29.2292 40.8091V33.3908C29.2292 31.0904 29.9743 28.9148 31.3832 27.1018C31.9287 26.3999 32.5641 25.7712 33.271 25.2306C35.0707 23.8584 37.2197 23.1315 39.4884 23.1315C40.7509 23.1315 41.9817 23.3577 43.1494 23.8052C42.5672 24.5869 41.8171 25.2423 40.9671 25.713C40.4814 25.6198 39.9841 25.5716 39.4884 25.5716C38.2709 25.5716 37.0999 25.8477 36.0121 26.3899C35.0341 26.8773 34.1492 27.5809 33.454 28.4242C32.303 29.8197 31.6692 31.5828 31.6692 33.3908V40.8091H29.2292Z" fill="#D2CAC3"/>
<path id="Vector_5" d="M27.1667 43.6483V41.2083H39.4884C43.7997 41.2083 47.3076 37.7004 47.3076 33.3891C47.3076 30.9623 46.1633 28.6603 44.2355 27.1817C44.8509 26.6394 45.3965 26.024 45.8605 25.3487C48.3339 27.3081 49.7477 30.2272 49.7477 33.3891C49.7477 39.046 45.1453 43.6483 39.4884 43.6483H27.1667Z" fill="#D2CAC3"/>
<path id="Vector_6" d="M37.6937 29.2525C36.3864 29.2525 35.1222 28.9913 33.933 28.479C34.5484 27.7854 35.3002 27.2033 36.1252 26.7808C36.6425 26.8972 37.1698 26.9554 37.6937 26.9554C38.878 26.9554 40.0539 26.6594 41.0935 26.1005C42.0998 25.5583 42.9764 24.7732 43.6267 23.8284C44.455 22.6259 44.8925 21.2187 44.8925 19.7583C44.8925 15.7897 41.664 12.5596 37.6937 12.5596H35.3451V10.2625H37.6937C40.2369 10.2625 42.6404 11.2505 44.46 13.0452C46.2847 14.8449 47.291 17.2285 47.291 19.7583C47.291 21.5115 46.7221 23.3078 45.6443 24.9512C45.1303 25.7362 44.5049 26.4398 43.7847 27.0419C42.0815 28.4674 39.9175 29.2525 37.6937 29.2525Z" fill="#D2CAC3"/>
<path id="Vector_7" d="M10.2359 24.7715C9.23296 23.1764 8.70569 21.4466 8.70569 19.7567C8.70569 17.2268 9.71032 14.8433 11.5366 13.0436C13.3563 11.2489 15.7598 10.2609 18.3029 10.2609H32.3312V12.5579H18.3029C14.3343 12.5579 11.1042 15.7864 11.1042 19.7567C11.1042 21.1356 11.495 22.4662 12.2352 23.6239C11.5316 23.9332 10.8613 24.3175 10.2376 24.7715H10.2359Z" fill="#D2CAC3"/>
<path id="Vector_8" d="M29.2292 44.0492H31.6693V52.7499L31.9005 52.715C37.2497 51.895 42.1165 49.4233 45.9737 45.5661C50.7756 40.7642 53.4186 34.3804 53.4186 27.5908C53.4186 20.8012 50.774 14.4175 45.972 9.61552C42.8666 6.51013 39.2423 4.34119 35.2005 3.17189L34.9443 3.09704V16.6213C34.9443 19.083 33.5455 21.3817 31.2967 22.6209L31.1304 22.7124L31.2135 22.8837C31.6127 23.707 32.1583 24.4389 32.8369 25.0593C32.2348 25.54 31.6876 26.0855 31.2019 26.6827C30.2605 25.7994 29.497 24.7183 28.9847 23.5407C28.692 22.867 28.4774 22.1601 28.3477 21.4399C29.2109 21.3784 29.9777 21.084 30.7428 20.5251C31.987 19.6153 32.7305 18.1566 32.7305 16.6213V-3.05176e-05C33.5555 0.13636 34.4021 0.286056 35.0957 0.46403C39.8943 1.69321 44.169 4.15656 47.7983 7.78755C53.0876 13.0768 56.0001 20.1093 56.0001 27.5892C56.0001 35.069 53.0876 42.1015 47.7983 47.3908C43.4321 51.7569 37.915 54.5014 31.8423 55.3314C30.9823 55.4495 30.1041 55.5276 29.2292 55.5642V44.0475V44.0492Z" fill="#D2CAC3"/>
</g>
</g>
</g>
</svg>
